<mxfile host="app.diagrams.net" modified="2024-07-08T02:16:14.478Z" agent="Mozilla/5.0 (Windows NT 10.0; Win64; x64) AppleWebKit/537.36 (KHTML, like Gecko) Chrome/128.0.0.0 Safari/537.36" version="24.6.4" etag="e_2GsGie5Pb3D_hnGxJq" type="github">
  <diagram name="第 1 页" id="uEgT5fUzhN5oy7BQ7mbD">
    <mxGraphModel>
      <root>
        <mxCell id="0" />
        <mxCell id="1" parent="0" />
      </root>
    </mxGraphModel>
  </diagram>
</mxfile>
